<svg width="168" height="47" viewBox="0 0 168 47" fill="none" xmlns="http://www.w3.org/2000/svg">
<rect width="168" height="47" rx="8" fill="#12070B"/>
<path d="M47.6363 24.2504C47.6705 27.8825 50.8647 29.0911 50.9 29.1065C50.8729 29.1917 50.3896 30.8289 49.2172 32.5199C48.2037 33.982 47.1518 35.4386 45.4947 35.4688C43.8666 35.4984 43.343 34.5159 41.4815 34.5159C39.6205 34.5159 39.0388 35.4386 37.4975 35.4984C35.898 35.5582 34.68 33.9175 33.6582 32.4608C31.5699 29.4812 29.9741 24.0409 32.1169 20.3687C33.1813 18.545 35.0838 17.3903 37.1485 17.3607C38.7192 17.3311 40.2017 18.4036 41.1618 18.4036C42.1213 18.4036 43.9229 17.1139 45.8168 17.3033C46.6096 17.3359 48.8352 17.6193 50.2643 19.6839C50.1491 19.7544 47.6087 21.214 47.6363 24.2505V24.2504ZM44.5764 15.332C45.4256 14.3175 45.9971 12.9053 45.8412 11.5C44.6171 11.5485 43.1371 12.305 42.2591 13.3189C41.4723 14.2169 40.7832 15.654 40.9692 17.0314C42.3335 17.1356 43.7272 16.3471 44.5765 15.332" fill="#F4F4F4"/>
<path d="M65.45 13.53C65.45 14.13 65.3567 14.6533 65.17 15.1C64.9833 15.54 64.72 15.9067 64.38 16.2C64.04 16.4867 63.6333 16.7033 63.16 16.85C62.6867 16.99 62.1667 17.06 61.6 17.06C61.32 17.06 61.01 17.0467 60.67 17.02C60.3367 17 60.0333 16.9567 59.76 16.89V10.17C60.0333 10.1033 60.3367 10.06 60.67 10.04C61.01 10.0133 61.32 10 61.6 10C62.1667 10 62.6867 10.0733 63.16 10.22C63.6333 10.36 64.04 10.5767 64.38 10.87C64.72 11.1567 64.9833 11.5233 65.17 11.97C65.3567 12.41 65.45 12.93 65.45 13.53ZM61.68 16.21C62.6 16.21 63.2867 15.9767 63.74 15.51C64.1933 15.0367 64.42 14.3767 64.42 13.53C64.42 12.6833 64.1933 12.0267 63.74 11.56C63.2867 11.0867 62.6 10.85 61.68 10.85C61.4067 10.85 61.1933 10.8533 61.04 10.86C60.8933 10.8667 60.79 10.8733 60.73 10.88V16.18C60.79 16.1867 60.8933 16.1933 61.04 16.2C61.1933 16.2067 61.4067 16.21 61.68 16.21ZM71.4189 14.4C71.4189 14.8133 71.3589 15.1867 71.2389 15.52C71.1189 15.8533 70.9489 16.14 70.7289 16.38C70.5156 16.62 70.2589 16.8067 69.9589 16.94C69.6589 17.0667 69.3322 17.13 68.9789 17.13C68.6256 17.13 68.2989 17.0667 67.9989 16.94C67.6989 16.8067 67.4389 16.62 67.2189 16.38C67.0056 16.14 66.8389 15.8533 66.7189 15.52C66.5989 15.1867 66.5389 14.8133 66.5389 14.4C66.5389 13.9933 66.5989 13.6233 66.7189 13.29C66.8389 12.95 67.0056 12.66 67.2189 12.42C67.4389 12.18 67.6989 11.9967 67.9989 11.87C68.2989 11.7367 68.6256 11.67 68.9789 11.67C69.3322 11.67 69.6589 11.7367 69.9589 11.87C70.2589 11.9967 70.5156 12.18 70.7289 12.42C70.9489 12.66 71.1189 12.95 71.2389 13.29C71.3589 13.6233 71.4189 13.9933 71.4189 14.4ZM70.4489 14.4C70.4489 13.8133 70.3156 13.35 70.0489 13.01C69.7889 12.6633 69.4322 12.49 68.9789 12.49C68.5256 12.49 68.1656 12.6633 67.8989 13.01C67.6389 13.35 67.5089 13.8133 67.5089 14.4C67.5089 14.9867 67.6389 15.4533 67.8989 15.8C68.1656 16.14 68.5256 16.31 68.9789 16.31C69.4322 16.31 69.7889 16.14 70.0489 15.8C70.3156 15.4533 70.4489 14.9867 70.4489 14.4ZM76.8504 17C76.6637 16.52 76.4637 15.9733 76.2504 15.36C76.0437 14.74 75.8537 14.0967 75.6804 13.43C75.5071 14.0967 75.3171 14.74 75.1104 15.36C74.9037 15.9733 74.7071 16.52 74.5204 17H73.7104C73.4037 16.3133 73.1037 15.53 72.8104 14.65C72.5171 13.77 72.2404 12.82 71.9804 11.8H72.9804C73.0471 12.1133 73.1271 12.4533 73.2204 12.82C73.3137 13.1867 73.4104 13.5533 73.5104 13.92C73.6171 14.2867 73.7271 14.64 73.8404 14.98C73.9537 15.32 74.0604 15.6167 74.1604 15.87C74.2737 15.5567 74.3837 15.2267 74.4904 14.88C74.6037 14.5267 74.7104 14.1733 74.8104 13.82C74.9104 13.46 75.0037 13.11 75.0904 12.77C75.1837 12.4233 75.2637 12.1 75.3304 11.8H76.1004C76.1604 12.1 76.2337 12.4233 76.3204 12.77C76.4071 13.11 76.5004 13.46 76.6004 13.82C76.7004 14.1733 76.8037 14.5267 76.9104 14.88C77.0237 15.2267 77.1371 15.5567 77.2504 15.87C77.3504 15.6167 77.4537 15.32 77.5604 14.98C77.6737 14.64 77.7837 14.2867 77.8904 13.92C77.9971 13.5533 78.0971 13.1867 78.1904 12.82C78.2837 12.4533 78.3637 12.1133 78.4304 11.8H79.3904C79.1304 12.82 78.8537 13.77 78.5604 14.65C78.2671 15.53 77.9671 16.3133 77.6604 17H76.8504ZM80.3738 11.95C80.5872 11.8967 80.8705 11.84 81.2238 11.78C81.5772 11.72 81.9838 11.69 82.4438 11.69C82.8572 11.69 83.2005 11.75 83.4738 11.87C83.7472 11.9833 83.9638 12.1467 84.1238 12.36C84.2905 12.5667 84.4072 12.8167 84.4738 13.11C84.5405 13.4033 84.5738 13.7267 84.5738 14.08V17H83.6438V14.28C83.6438 13.96 83.6205 13.6867 83.5738 13.46C83.5338 13.2333 83.4638 13.05 83.3638 12.91C83.2638 12.77 83.1305 12.67 82.9638 12.61C82.7972 12.5433 82.5905 12.51 82.3438 12.51C82.2438 12.51 82.1405 12.5133 82.0338 12.52C81.9272 12.5267 81.8238 12.5367 81.7238 12.55C81.6305 12.5567 81.5438 12.5667 81.4638 12.58C81.3905 12.5933 81.3372 12.6033 81.3038 12.61V17H80.3738V11.95ZM87.676 17.1C87.1027 17.0867 86.696 16.9633 86.456 16.73C86.216 16.4967 86.096 16.1333 86.096 15.64V9.4L87.026 9.24V15.49C87.026 15.6433 87.0393 15.77 87.066 15.87C87.0927 15.97 87.136 16.05 87.196 16.11C87.256 16.17 87.336 16.2167 87.436 16.25C87.536 16.2767 87.6593 16.3 87.806 16.32L87.676 17.1ZM93.4404 14.4C93.4404 14.8133 93.3804 15.1867 93.2604 15.52C93.1404 15.8533 92.9704 16.14 92.7504 16.38C92.5371 16.62 92.2804 16.8067 91.9804 16.94C91.6804 17.0667 91.3537 17.13 91.0004 17.13C90.6471 17.13 90.3204 17.0667 90.0204 16.94C89.7204 16.8067 89.4604 16.62 89.2404 16.38C89.0271 16.14 88.8604 15.8533 88.7404 15.52C88.6204 15.1867 88.5604 14.8133 88.5604 14.4C88.5604 13.9933 88.6204 13.6233 88.7404 13.29C88.8604 12.95 89.0271 12.66 89.2404 12.42C89.4604 12.18 89.7204 11.9967 90.0204 11.87C90.3204 11.7367 90.6471 11.67 91.0004 11.67C91.3537 11.67 91.6804 11.7367 91.9804 11.87C92.2804 11.9967 92.5371 12.18 92.7504 12.42C92.9704 12.66 93.1404 12.95 93.2604 13.29C93.3804 13.6233 93.4404 13.9933 93.4404 14.4ZM92.4704 14.4C92.4704 13.8133 92.3371 13.35 92.0704 13.01C91.8104 12.6633 91.4537 12.49 91.0004 12.49C90.5471 12.49 90.1871 12.6633 89.9204 13.01C89.6604 13.35 89.5304 13.8133 89.5304 14.4C89.5304 14.9867 89.6604 15.4533 89.9204 15.8C90.1871 16.14 90.5471 16.31 91.0004 16.31C91.4537 16.31 91.8104 16.14 92.0704 15.8C92.3371 15.4533 92.4704 14.9867 92.4704 14.4ZM96.5088 16.33C96.7288 16.33 96.9222 16.3267 97.0888 16.32C97.2622 16.3067 97.4055 16.2867 97.5188 16.26V14.71C97.4522 14.6767 97.3422 14.65 97.1888 14.63C97.0422 14.6033 96.8622 14.59 96.6488 14.59C96.5088 14.59 96.3588 14.6 96.1988 14.62C96.0455 14.64 95.9022 14.6833 95.7688 14.75C95.6422 14.81 95.5355 14.8967 95.4488 15.01C95.3622 15.1167 95.3188 15.26 95.3188 15.44C95.3188 15.7733 95.4255 16.0067 95.6388 16.14C95.8522 16.2667 96.1422 16.33 96.5088 16.33ZM96.4288 11.67C96.8022 11.67 97.1155 11.72 97.3688 11.82C97.6288 11.9133 97.8355 12.05 97.9888 12.23C98.1488 12.4033 98.2622 12.6133 98.3288 12.86C98.3955 13.1 98.4288 13.3667 98.4288 13.66V16.91C98.3488 16.9233 98.2355 16.9433 98.0888 16.97C97.9488 16.99 97.7888 17.01 97.6088 17.03C97.4288 17.05 97.2322 17.0667 97.0188 17.08C96.8122 17.1 96.6055 17.11 96.3988 17.11C96.1055 17.11 95.8355 17.08 95.5888 17.02C95.3422 16.96 95.1288 16.8667 94.9488 16.74C94.7688 16.6067 94.6288 16.4333 94.5288 16.22C94.4288 16.0067 94.3788 15.75 94.3788 15.45C94.3788 15.1633 94.4355 14.9167 94.5488 14.71C94.6688 14.5033 94.8288 14.3367 95.0288 14.21C95.2288 14.0833 95.4622 13.99 95.7288 13.93C95.9955 13.87 96.2755 13.84 96.5688 13.84C96.6622 13.84 96.7588 13.8467 96.8588 13.86C96.9588 13.8667 97.0522 13.88 97.1388 13.9C97.2322 13.9133 97.3122 13.9267 97.3788 13.94C97.4455 13.9533 97.4922 13.9633 97.5188 13.97V13.71C97.5188 13.5567 97.5022 13.4067 97.4688 13.26C97.4355 13.1067 97.3755 12.9733 97.2888 12.86C97.2022 12.74 97.0822 12.6467 96.9288 12.58C96.7822 12.5067 96.5888 12.47 96.3488 12.47C96.0422 12.47 95.7722 12.4933 95.5388 12.54C95.3122 12.58 95.1422 12.6233 95.0288 12.67L94.9188 11.9C95.0388 11.8467 95.2388 11.7967 95.5188 11.75C95.7988 11.6967 96.1022 11.67 96.4288 11.67ZM103.333 12.9C103.22 12.8067 103.057 12.7167 102.843 12.63C102.63 12.5433 102.397 12.5 102.143 12.5C101.877 12.5 101.647 12.55 101.453 12.65C101.267 12.7433 101.113 12.8767 100.993 13.05C100.873 13.2167 100.787 13.4167 100.733 13.65C100.68 13.8833 100.653 14.1333 100.653 14.4C100.653 15.0067 100.803 15.4767 101.103 15.81C101.403 16.1367 101.803 16.3 102.303 16.3C102.557 16.3 102.767 16.29 102.933 16.27C103.107 16.2433 103.24 16.2167 103.333 16.19V12.9ZM103.333 9.4L104.263 9.24V16.85C104.05 16.91 103.777 16.97 103.443 17.03C103.11 17.09 102.727 17.12 102.293 17.12C101.893 17.12 101.533 17.0567 101.213 16.93C100.893 16.8033 100.62 16.6233 100.393 16.39C100.167 16.1567 99.9901 15.8733 99.8634 15.54C99.7434 15.2 99.6834 14.82 99.6834 14.4C99.6834 14 99.7334 13.6333 99.8334 13.3C99.9401 12.9667 100.093 12.68 100.293 12.44C100.493 12.2 100.737 12.0133 101.023 11.88C101.317 11.7467 101.65 11.68 102.023 11.68C102.323 11.68 102.587 11.72 102.813 11.8C103.047 11.88 103.22 11.9567 103.333 12.03V9.4ZM112.767 14.4C112.767 14.8133 112.707 15.1867 112.587 15.52C112.467 15.8533 112.297 16.14 112.077 16.38C111.863 16.62 111.607 16.8067 111.307 16.94C111.007 17.0667 110.68 17.13 110.327 17.13C109.973 17.13 109.647 17.0667 109.347 16.94C109.047 16.8067 108.787 16.62 108.567 16.38C108.353 16.14 108.187 15.8533 108.067 15.52C107.947 15.1867 107.887 14.8133 107.887 14.4C107.887 13.9933 107.947 13.6233 108.067 13.29C108.187 12.95 108.353 12.66 108.567 12.42C108.787 12.18 109.047 11.9967 109.347 11.87C109.647 11.7367 109.973 11.67 110.327 11.67C110.68 11.67 111.007 11.7367 111.307 11.87C111.607 11.9967 111.863 12.18 112.077 12.42C112.297 12.66 112.467 12.95 112.587 13.29C112.707 13.6233 112.767 13.9933 112.767 14.4ZM111.797 14.4C111.797 13.8133 111.663 13.35 111.397 13.01C111.137 12.6633 110.78 12.49 110.327 12.49C109.873 12.49 109.513 12.6633 109.247 13.01C108.987 13.35 108.857 13.8133 108.857 14.4C108.857 14.9867 108.987 15.4533 109.247 15.8C109.513 16.14 109.873 16.31 110.327 16.31C110.78 16.31 111.137 16.14 111.397 15.8C111.663 15.4533 111.797 14.9867 111.797 14.4ZM114.075 11.95C114.288 11.8967 114.572 11.84 114.925 11.78C115.278 11.72 115.685 11.69 116.145 11.69C116.558 11.69 116.902 11.75 117.175 11.87C117.448 11.9833 117.665 12.1467 117.825 12.36C117.992 12.5667 118.108 12.8167 118.175 13.11C118.242 13.4033 118.275 13.7267 118.275 14.08V17H117.345V14.28C117.345 13.96 117.322 13.6867 117.275 13.46C117.235 13.2333 117.165 13.05 117.065 12.91C116.965 12.77 116.832 12.67 116.665 12.61C116.498 12.5433 116.292 12.51 116.045 12.51C115.945 12.51 115.842 12.5133 115.735 12.52C115.628 12.5267 115.525 12.5367 115.425 12.55C115.332 12.5567 115.245 12.5667 115.165 12.58C115.092 12.5933 115.038 12.6033 115.005 12.61V17H114.075V11.95ZM123.002 11.8H124.972V12.58H123.002V14.98C123.002 15.24 123.022 15.4567 123.062 15.63C123.102 15.7967 123.162 15.93 123.242 16.03C123.322 16.1233 123.422 16.19 123.542 16.23C123.662 16.27 123.802 16.29 123.962 16.29C124.242 16.29 124.465 16.26 124.632 16.2C124.805 16.1333 124.925 16.0867 124.992 16.06L125.172 16.83C125.078 16.8767 124.915 16.9333 124.682 17C124.448 17.0733 124.182 17.11 123.882 17.11C123.528 17.11 123.235 17.0667 123.002 16.98C122.775 16.8867 122.592 16.75 122.452 16.57C122.312 16.39 122.212 16.17 122.152 15.91C122.098 15.6433 122.072 15.3367 122.072 14.99V10.35L123.002 10.19V11.8ZM126.155 17V9.4L127.085 9.24V11.9C127.258 11.8333 127.442 11.7833 127.635 11.75C127.835 11.71 128.032 11.69 128.225 11.69C128.638 11.69 128.982 11.75 129.255 11.87C129.528 11.9833 129.745 12.1467 129.905 12.36C130.072 12.5667 130.188 12.8167 130.255 13.11C130.322 13.4033 130.355 13.7267 130.355 14.08V17H129.425V14.28C129.425 13.96 129.402 13.6867 129.355 13.46C129.315 13.2333 129.245 13.05 129.145 12.91C129.045 12.77 128.912 12.67 128.745 12.61C128.578 12.5433 128.372 12.51 128.125 12.51C128.025 12.51 127.922 12.5167 127.815 12.53C127.708 12.5433 127.605 12.56 127.505 12.58C127.412 12.5933 127.325 12.61 127.245 12.63C127.172 12.65 127.118 12.6667 127.085 12.68V17H126.155ZM131.578 14.41C131.578 13.95 131.645 13.55 131.778 13.21C131.911 12.8633 132.088 12.5767 132.308 12.35C132.528 12.1233 132.781 11.9533 133.068 11.84C133.355 11.7267 133.648 11.67 133.948 11.67C134.648 11.67 135.185 11.89 135.558 12.33C135.931 12.7633 136.118 13.4267 136.118 14.32C136.118 14.36 136.118 14.4133 136.118 14.48C136.118 14.54 136.115 14.5967 136.108 14.65H132.548C132.588 15.19 132.745 15.6 133.018 15.88C133.291 16.16 133.718 16.3 134.298 16.3C134.625 16.3 134.898 16.2733 135.118 16.22C135.345 16.16 135.515 16.1033 135.628 16.05L135.758 16.83C135.645 16.89 135.445 16.9533 135.158 17.02C134.878 17.0867 134.558 17.12 134.198 17.12C133.745 17.12 133.351 17.0533 133.018 16.92C132.691 16.78 132.421 16.59 132.208 16.35C131.995 16.11 131.835 15.8267 131.728 15.5C131.628 15.1667 131.578 14.8033 131.578 14.41ZM135.148 13.9C135.155 13.48 135.048 13.1367 134.828 12.87C134.615 12.5967 134.318 12.46 133.938 12.46C133.725 12.46 133.535 12.5033 133.368 12.59C133.208 12.67 133.071 12.7767 132.958 12.91C132.845 13.0433 132.755 13.1967 132.688 13.37C132.628 13.5433 132.588 13.72 132.568 13.9H135.148Z" fill="#F4F4F4"/>
<path d="M66.502 34C66.3713 33.6173 66.236 33.2393 66.096 32.866C65.956 32.4927 65.8207 32.11 65.69 31.718H61.602C61.4713 32.11 61.336 32.4973 61.196 32.88C61.0653 33.2533 60.9347 33.6267 60.804 34H58.97C59.334 32.964 59.6793 32.0073 60.006 31.13C60.3327 30.2527 60.65 29.422 60.958 28.638C61.2753 27.854 61.588 27.1073 61.896 26.398C62.204 25.6887 62.5213 24.9887 62.848 24.298H64.514C64.8407 24.9887 65.158 25.6887 65.466 26.398C65.774 27.1073 66.082 27.854 66.39 28.638C66.7073 29.422 67.0293 30.2527 67.356 31.13C67.692 32.0073 68.042 32.964 68.406 34H66.502ZM63.646 26.174C63.4313 26.6687 63.184 27.2707 62.904 27.98C62.6333 28.6893 62.3487 29.4593 62.05 30.29H65.242C64.9433 29.4593 64.654 28.6847 64.374 27.966C64.094 27.2473 63.8513 26.65 63.646 26.174ZM74.4063 30.374C74.4063 29.618 74.2336 29.03 73.8883 28.61C73.5523 28.19 73.0063 27.98 72.2503 27.98C72.0916 27.98 71.9236 27.9893 71.7463 28.008C71.5783 28.0173 71.4103 28.0453 71.2423 28.092V32.278C71.3916 32.3807 71.5876 32.4787 71.8303 32.572C72.0823 32.656 72.3483 32.698 72.6283 32.698C73.2443 32.698 73.6923 32.488 73.9723 32.068C74.2616 31.648 74.4063 31.0833 74.4063 30.374ZM76.1423 30.346C76.1423 30.906 76.0676 31.4193 75.9183 31.886C75.7783 32.3527 75.573 32.754 75.3023 33.09C75.0316 33.426 74.691 33.6873 74.2803 33.874C73.879 34.0607 73.4216 34.154 72.9083 34.154C72.563 34.154 72.2456 34.112 71.9563 34.028C71.667 33.944 71.429 33.8507 71.2423 33.748V36.59H69.5483V26.916C69.8936 26.8227 70.3183 26.734 70.8223 26.65C71.3263 26.566 71.8583 26.524 72.4183 26.524C72.997 26.524 73.515 26.6127 73.9723 26.79C74.4296 26.9673 74.817 27.224 75.1343 27.56C75.461 27.8867 75.7083 28.288 75.8763 28.764C76.0536 29.2307 76.1423 29.758 76.1423 30.346ZM82.7462 30.374C82.7462 29.618 82.5735 29.03 82.2282 28.61C81.8922 28.19 81.3462 27.98 80.5902 27.98C80.4315 27.98 80.2635 27.9893 80.0862 28.008C79.9182 28.0173 79.7502 28.0453 79.5822 28.092V32.278C79.7315 32.3807 79.9275 32.4787 80.1702 32.572C80.4222 32.656 80.6882 32.698 80.9682 32.698C81.5842 32.698 82.0322 32.488 82.3122 32.068C82.6015 31.648 82.7462 31.0833 82.7462 30.374ZM84.4822 30.346C84.4822 30.906 84.4075 31.4193 84.2582 31.886C84.1182 32.3527 83.9128 32.754 83.6422 33.09C83.3715 33.426 83.0308 33.6873 82.6202 33.874C82.2188 34.0607 81.7615 34.154 81.2482 34.154C80.9028 34.154 80.5855 34.112 80.2962 34.028C80.0068 33.944 79.7688 33.8507 79.5822 33.748V36.59H77.8882V26.916C78.2335 26.8227 78.6582 26.734 79.1622 26.65C79.6662 26.566 80.1982 26.524 80.7582 26.524C81.3368 26.524 81.8548 26.6127 82.3122 26.79C82.7695 26.9673 83.1568 27.224 83.4742 27.56C83.8008 27.8867 84.0482 28.288 84.2162 28.764C84.3935 29.2307 84.4822 29.758 84.4822 30.346ZM91.9316 32.684C92.5662 32.684 93.0282 32.5767 93.3176 32.362C93.6069 32.1473 93.7516 31.844 93.7516 31.452C93.7516 31.2187 93.7002 31.018 93.5976 30.85C93.5042 30.682 93.3642 30.5327 93.1776 30.402C93.0002 30.262 92.7809 30.136 92.5196 30.024C92.2582 29.9027 91.9596 29.786 91.6236 29.674C91.2876 29.5527 90.9609 29.422 90.6436 29.282C90.3356 29.1327 90.0602 28.9507 89.8176 28.736C89.5842 28.5213 89.3929 28.2647 89.2436 27.966C89.1036 27.6673 89.0336 27.308 89.0336 26.888C89.0336 26.0107 89.3369 25.3247 89.9436 24.83C90.5502 24.326 91.3762 24.074 92.4216 24.074C93.0282 24.074 93.5649 24.144 94.0316 24.284C94.5076 24.4147 94.8809 24.5593 95.1516 24.718L94.6056 26.146C94.2882 25.9687 93.9382 25.8333 93.5556 25.74C93.1822 25.6467 92.7949 25.6 92.3936 25.6C91.9176 25.6 91.5442 25.698 91.2736 25.894C91.0122 26.09 90.8816 26.3653 90.8816 26.72C90.8816 26.9347 90.9236 27.1213 91.0076 27.28C91.1009 27.4293 91.2269 27.5647 91.3856 27.686C91.5536 27.8073 91.7449 27.9193 91.9596 28.022C92.1836 28.1247 92.4262 28.2227 92.6876 28.316C93.1449 28.484 93.5509 28.6567 93.9056 28.834C94.2696 29.002 94.5729 29.2073 94.8156 29.45C95.0676 29.6833 95.2589 29.9633 95.3896 30.29C95.5202 30.6073 95.5856 30.9947 95.5856 31.452C95.5856 32.3293 95.2729 33.0107 94.6476 33.496C94.0316 33.972 93.1262 34.21 91.9316 34.21C91.5302 34.21 91.1616 34.182 90.8256 34.126C90.4989 34.0793 90.2049 34.0187 89.9436 33.944C89.6916 33.8693 89.4722 33.7947 89.2856 33.72C89.0989 33.636 88.9496 33.5613 88.8376 33.496L89.3556 32.054C89.6076 32.194 89.9482 32.334 90.3776 32.474C90.8069 32.614 91.3249 32.684 91.9316 32.684ZM96.9721 24.746L98.6661 24.466V26.678H101.27V28.092H98.6661V31.074C98.6661 31.662 98.7595 32.082 98.9461 32.334C99.1328 32.586 99.4501 32.712 99.8981 32.712C100.206 32.712 100.477 32.6793 100.71 32.614C100.953 32.5487 101.144 32.488 101.284 32.432L101.564 33.776C101.368 33.86 101.111 33.944 100.794 34.028C100.477 34.1213 100.103 34.168 99.6741 34.168C99.1515 34.168 98.7128 34.098 98.3581 33.958C98.0128 33.818 97.7375 33.6173 97.5321 33.356C97.3268 33.0853 97.1821 32.7633 97.0981 32.39C97.0141 32.0073 96.9721 31.5733 96.9721 31.088V24.746ZM109.366 30.332C109.366 30.9107 109.282 31.438 109.114 31.914C108.946 32.39 108.708 32.796 108.4 33.132C108.092 33.468 107.718 33.7293 107.28 33.916C106.85 34.1027 106.374 34.196 105.852 34.196C105.329 34.196 104.853 34.1027 104.424 33.916C103.994 33.7293 103.626 33.468 103.318 33.132C103.01 32.796 102.767 32.39 102.59 31.914C102.422 31.438 102.338 30.9107 102.338 30.332C102.338 29.7533 102.422 29.2307 102.59 28.764C102.767 28.288 103.01 27.882 103.318 27.546C103.635 27.21 104.008 26.9533 104.438 26.776C104.867 26.5893 105.338 26.496 105.852 26.496C106.365 26.496 106.836 26.5893 107.266 26.776C107.704 26.9533 108.078 27.21 108.386 27.546C108.694 27.882 108.932 28.288 109.1 28.764C109.277 29.2307 109.366 29.7533 109.366 30.332ZM107.63 30.332C107.63 29.604 107.471 29.03 107.154 28.61C106.846 28.1807 106.412 27.966 105.852 27.966C105.292 27.966 104.853 28.1807 104.536 28.61C104.228 29.03 104.074 29.604 104.074 30.332C104.074 31.0693 104.228 31.6527 104.536 32.082C104.853 32.5113 105.292 32.726 105.852 32.726C106.412 32.726 106.846 32.5113 107.154 32.082C107.471 31.6527 107.63 31.0693 107.63 30.332ZM115.283 28.204C115.143 28.1573 114.947 28.1107 114.695 28.064C114.452 28.008 114.167 27.98 113.841 27.98C113.654 27.98 113.453 27.9987 113.239 28.036C113.033 28.0733 112.889 28.106 112.805 28.134V34H111.111V27.028C111.437 26.9067 111.843 26.7947 112.329 26.692C112.823 26.58 113.369 26.524 113.967 26.524C114.079 26.524 114.209 26.5333 114.359 26.552C114.508 26.5613 114.657 26.58 114.807 26.608C114.956 26.6267 115.101 26.6547 115.241 26.692C115.381 26.72 115.493 26.748 115.577 26.776L115.283 28.204ZM116.351 30.374C116.351 29.73 116.445 29.1653 116.631 28.68C116.827 28.1947 117.084 27.7933 117.401 27.476C117.719 27.1493 118.083 26.9067 118.493 26.748C118.904 26.58 119.324 26.496 119.753 26.496C120.761 26.496 121.545 26.8087 122.105 27.434C122.675 28.0593 122.959 28.9927 122.959 30.234C122.959 30.3273 122.955 30.4347 122.945 30.556C122.945 30.668 122.941 30.7707 122.931 30.864H118.101C118.148 31.452 118.353 31.9093 118.717 32.236C119.091 32.5533 119.627 32.712 120.327 32.712C120.738 32.712 121.111 32.6747 121.447 32.6C121.793 32.5253 122.063 32.446 122.259 32.362L122.483 33.748C122.39 33.7947 122.259 33.846 122.091 33.902C121.933 33.9487 121.746 33.9907 121.531 34.028C121.326 34.0747 121.102 34.112 120.859 34.14C120.617 34.168 120.369 34.182 120.117 34.182C119.473 34.182 118.913 34.0887 118.437 33.902C117.961 33.706 117.569 33.44 117.261 33.104C116.953 32.7587 116.725 32.3573 116.575 31.9C116.426 31.4333 116.351 30.9247 116.351 30.374ZM121.265 29.618C121.265 29.3847 121.233 29.1653 121.167 28.96C121.102 28.7453 121.004 28.5633 120.873 28.414C120.752 28.2553 120.598 28.134 120.411 28.05C120.234 27.9567 120.019 27.91 119.767 27.91C119.506 27.91 119.277 27.9613 119.081 28.064C118.885 28.1573 118.717 28.2833 118.577 28.442C118.447 28.6007 118.344 28.7827 118.269 28.988C118.195 29.1933 118.143 29.4033 118.115 29.618H121.265Z" fill="#F4F4F4"/>
</svg>
