<svg width="20" height="20" viewBox="0 0 20 20" fill="none" xmlns="http://www.w3.org/2000/svg">
<path d="M16.2753 4.6086C16.5193 4.36452 16.5193 3.96879 16.2753 3.72471C16.0312 3.48064 15.6355 3.48064 15.3914 3.72471L9.99999 9.11611L4.6086 3.72471C4.36452 3.48064 3.96879 3.48064 3.72472 3.72471C3.48064 3.96879 3.48064 4.36452 3.72472 4.6086L9.11611 9.99999L3.72471 15.3914C3.48064 15.6355 3.48064 16.0312 3.72471 16.2753C3.96879 16.5193 4.36452 16.5193 4.6086 16.2753L9.99999 10.8839L15.3914 16.2753C15.6355 16.5193 16.0312 16.5193 16.2753 16.2753C16.5193 16.0312 16.5193 15.6355 16.2753 15.3914L10.8839 9.99999L16.2753 4.6086Z" fill="#1B1314"/>
</svg>
