<svg width="109" height="26" viewBox="0 0 109 26" fill="none" xmlns="http://www.w3.org/2000/svg">
<path fill-rule="evenodd" clip-rule="evenodd" d="M17.4957 7.50289C12.9266 12.0711 5.8032 12.5277 0.723437 8.87273C2.40618 4.27856 6.81762 1 11.9948 1H24L21.1928 3.80662C20.8778 4.12151 20.5824 4.44854 20.3065 4.7862C20.3068 4.75494 20.3069 4.72364 20.3069 4.69232L17.4957 7.50289ZM7.75105 16.6798C4.74772 16.5435 2.03201 15.3035 -9.26831e-06 13.3558C0.135951 18.0249 2.93899 22.0251 6.9386 23.8859C6.47292 21.536 6.7046 19.0264 7.75105 16.6798ZM11.5174 24.9907C11.6758 24.9969 11.8349 25 11.9948 25H24L21.1928 22.1934C18.7492 19.7503 17.4815 16.5766 17.3896 13.3754C13.4891 15.9186 11.2566 20.3801 11.5174 24.9907Z" fill="#E09370"/>
<path d="M33.04 18.9C33.4133 18.8867 33.7 18.8267 33.9 18.72C34.1 18.6 34.24 18.4 34.32 18.12C34.4 17.8267 34.44 17.4267 34.44 16.92V8.94C34.44 8.60667 34.4467 8.28667 34.46 7.98C34.4867 7.67333 34.5067 7.43333 34.52 7.26C34.2933 7.27333 34.0333 7.28667 33.74 7.3C33.4467 7.3 33.2133 7.30667 33.04 7.32V6L38.48 5.98C39.76 5.98 40.8867 6.16 41.86 6.52C42.8467 6.86667 43.6667 7.36 44.32 8C44.9733 8.64 45.4667 9.38 45.8 10.22C46.1467 11.06 46.32 11.96 46.32 12.92C46.32 13.76 46.1667 14.6 45.86 15.44C45.5667 16.28 45.1067 17.0467 44.48 17.74C43.8667 18.42 43.0667 18.9667 42.08 19.38C41.1067 19.7933 39.9467 20 38.6 20H33.04V18.9ZM36.96 17.02C36.96 17.38 36.9533 17.7133 36.94 18.02C36.9267 18.3267 36.9067 18.5667 36.88 18.74C37.0933 18.74 37.3267 18.7467 37.58 18.76C37.8333 18.76 38.08 18.7667 38.32 18.78C38.56 18.78 38.74 18.78 38.86 18.78C39.6333 18.78 40.3133 18.6267 40.9 18.32C41.4867 18.0133 41.9733 17.6 42.36 17.08C42.76 16.56 43.06 15.9667 43.26 15.3C43.46 14.62 43.56 13.9067 43.56 13.16C43.56 11.84 43.3533 10.74 42.94 9.86C42.54 8.96667 41.96 8.29333 41.2 7.84C40.44 7.37333 39.5 7.13333 38.38 7.12C38.0067 7.10667 37.7133 7.16 37.5 7.28C37.2867 7.4 37.14 7.6 37.06 7.88C36.9933 8.16 36.96 8.55333 36.96 9.06V17.02ZM47.8595 18.94C48.2462 18.94 48.5195 18.86 48.6795 18.7C48.8395 18.5267 48.9395 18.2867 48.9795 17.98C49.0195 17.6733 49.0395 17.3267 49.0395 16.94V13.18C49.0395 12.94 49.0462 12.6867 49.0595 12.42C49.0729 12.1533 49.0929 11.88 49.1195 11.6C48.8929 11.6133 48.6462 11.6267 48.3795 11.64C48.1129 11.64 47.8929 11.6467 47.7195 11.66V10.38H48.4595C48.9929 10.38 49.4395 10.32 49.7995 10.2C50.1595 10.0667 50.4129 9.93333 50.5595 9.8H51.3995C51.4262 9.96 51.4462 10.2133 51.4595 10.56C51.4729 10.9067 51.4795 11.2533 51.4795 11.6C51.7862 11.2 52.1062 10.86 52.4395 10.58C52.7729 10.2867 53.1129 10.0667 53.4595 9.92C53.8195 9.76 54.1862 9.68 54.5595 9.68C54.9862 9.68 55.3595 9.8 55.6795 10.04C56.0129 10.28 56.1795 10.6667 56.1795 11.2C56.1795 11.3733 56.1329 11.56 56.0395 11.76C55.9595 11.96 55.8262 12.1267 55.6395 12.26C55.4662 12.3933 55.2262 12.46 54.9195 12.46C54.6395 12.46 54.3729 12.3733 54.1195 12.2C53.8795 12.0133 53.7529 11.72 53.7395 11.32C53.4595 11.3067 53.1662 11.4067 52.8595 11.62C52.5662 11.8333 52.2995 12.0933 52.0595 12.4C51.8195 12.7067 51.6329 13.02 51.4995 13.34L51.5195 17.14C51.5195 17.3533 51.5129 17.6133 51.4995 17.92C51.4862 18.2133 51.4662 18.5 51.4395 18.78C51.6529 18.7533 51.8795 18.74 52.1195 18.74C52.3595 18.7267 52.5595 18.72 52.7195 18.72V20H47.8595V18.94ZM61.7606 20.32C60.8006 20.32 59.9473 20.1067 59.2006 19.68C58.454 19.24 57.874 18.6267 57.4606 17.84C57.0473 17.04 56.8406 16.1 56.8406 15.02C56.8406 14.0867 57.0473 13.2133 57.4606 12.4C57.874 11.5867 58.454 10.9333 59.2006 10.44C59.9606 9.93333 60.8406 9.68 61.8406 9.68C62.4006 9.68 62.9406 9.76 63.4606 9.92C63.9806 10.08 64.4473 10.3467 64.8606 10.72C65.274 11.0933 65.6006 11.5867 65.8406 12.2C66.094 12.8133 66.214 13.56 66.2006 14.44L59.4806 14.56C59.4806 15.3867 59.574 16.12 59.7606 16.76C59.9606 17.3867 60.2806 17.8867 60.7206 18.26C61.1606 18.62 61.7406 18.8 62.4606 18.8C62.7806 18.8 63.1206 18.7467 63.4806 18.64C63.854 18.52 64.2206 18.3467 64.5806 18.12C64.9406 17.88 65.2606 17.5867 65.5406 17.24L66.3006 17.94C65.8606 18.58 65.374 19.0733 64.8406 19.42C64.3073 19.7667 63.774 20 63.2406 20.12C62.7073 20.2533 62.214 20.32 61.7606 20.32ZM59.5806 13.36H63.7406C63.7273 12.8267 63.6473 12.38 63.5006 12.02C63.3673 11.6467 63.1673 11.3667 62.9006 11.18C62.634 10.98 62.3073 10.88 61.9206 10.88C61.2673 10.88 60.7406 11.1 60.3406 11.54C59.954 11.9667 59.7006 12.5733 59.5806 13.36ZM72.2019 20.32C71.5885 20.32 71.0152 20.24 70.4819 20.08C69.9485 19.92 69.5219 19.7267 69.2019 19.5L69.2619 20.14H67.9619L67.8619 16.7H68.9419C68.9819 17.1533 69.1419 17.5667 69.4219 17.94C69.7019 18.3 70.0619 18.5867 70.5019 18.8C70.9552 19 71.4552 19.1 72.0019 19.1C72.2685 19.1 72.5219 19.06 72.7619 18.98C73.0152 18.9 73.2219 18.7733 73.3819 18.6C73.5552 18.4133 73.6419 18.18 73.6419 17.9C73.6419 17.6067 73.5419 17.3667 73.3419 17.18C73.1552 16.9933 72.8885 16.82 72.5419 16.66C72.1952 16.5 71.7885 16.3333 71.3219 16.16C70.9085 16 70.4952 15.8333 70.0819 15.66C69.6685 15.4867 69.2885 15.28 68.9419 15.04C68.5952 14.7867 68.3152 14.48 68.1019 14.12C67.8885 13.76 67.7819 13.32 67.7819 12.8C67.7819 12.44 67.8485 12.08 67.9819 11.72C68.1152 11.36 68.3285 11.0267 68.6219 10.72C68.9152 10.4 69.2885 10.1467 69.7419 9.96C70.2085 9.77333 70.7752 9.68 71.4419 9.68C71.8019 9.68 72.2085 9.74 72.6619 9.86C73.1152 9.96667 73.5152 10.1533 73.8619 10.42L73.8419 9.78H75.1419V13.3H74.0619C73.9952 12.8333 73.8485 12.42 73.6219 12.06C73.3952 11.6867 73.0952 11.3933 72.7219 11.18C72.3485 10.9667 71.9019 10.86 71.3819 10.86C70.9552 10.86 70.5952 10.9667 70.3019 11.18C70.0085 11.38 69.8619 11.68 69.8619 12.08C69.8619 12.4133 69.9752 12.6867 70.2019 12.9C70.4285 13.1133 70.7352 13.2933 71.1219 13.44C71.5085 13.5867 71.9285 13.7467 72.3819 13.92C73.0085 14.1333 73.5752 14.3867 74.0819 14.68C74.6019 14.9733 75.0152 15.3267 75.3219 15.74C75.6285 16.1533 75.7819 16.6667 75.7819 17.28C75.7819 17.9733 75.6085 18.5467 75.2619 19C74.9152 19.44 74.4685 19.7733 73.9219 20C73.3752 20.2133 72.8019 20.32 72.2019 20.32ZM81.7527 20.32C81.1393 20.32 80.566 20.24 80.0327 20.08C79.4993 19.92 79.0727 19.7267 78.7527 19.5L78.8127 20.14H77.5127L77.4127 16.7H78.4927C78.5327 17.1533 78.6927 17.5667 78.9727 17.94C79.2527 18.3 79.6127 18.5867 80.0527 18.8C80.506 19 81.006 19.1 81.5527 19.1C81.8193 19.1 82.0727 19.06 82.3127 18.98C82.566 18.9 82.7727 18.7733 82.9327 18.6C83.106 18.4133 83.1927 18.18 83.1927 17.9C83.1927 17.6067 83.0927 17.3667 82.8927 17.18C82.706 16.9933 82.4393 16.82 82.0927 16.66C81.746 16.5 81.3393 16.3333 80.8727 16.16C80.4593 16 80.046 15.8333 79.6327 15.66C79.2193 15.4867 78.8393 15.28 78.4927 15.04C78.146 14.7867 77.866 14.48 77.6527 14.12C77.4393 13.76 77.3327 13.32 77.3327 12.8C77.3327 12.44 77.3993 12.08 77.5327 11.72C77.666 11.36 77.8793 11.0267 78.1727 10.72C78.466 10.4 78.8393 10.1467 79.2927 9.96C79.7593 9.77333 80.326 9.68 80.9927 9.68C81.3527 9.68 81.7593 9.74 82.2127 9.86C82.666 9.96667 83.066 10.1533 83.4127 10.42L83.3927 9.78H84.6927V13.3H83.6127C83.546 12.8333 83.3993 12.42 83.1727 12.06C82.946 11.6867 82.646 11.3933 82.2727 11.18C81.8993 10.9667 81.4527 10.86 80.9327 10.86C80.506 10.86 80.146 10.9667 79.8527 11.18C79.5593 11.38 79.4127 11.68 79.4127 12.08C79.4127 12.4133 79.526 12.6867 79.7527 12.9C79.9793 13.1133 80.286 13.2933 80.6727 13.44C81.0593 13.5867 81.4793 13.7467 81.9327 13.92C82.5593 14.1333 83.126 14.3867 83.6327 14.68C84.1527 14.9733 84.566 15.3267 84.8727 15.74C85.1793 16.1533 85.3327 16.6667 85.3327 17.28C85.3327 17.9733 85.1593 18.5467 84.8127 19C84.466 19.44 84.0193 19.7733 83.4727 20C82.926 20.2133 82.3527 20.32 81.7527 20.32ZM87.0634 20V18.9C87.4368 18.8867 87.7234 18.8267 87.9234 18.72C88.1234 18.6 88.2634 18.4 88.3434 18.12C88.4234 17.8267 88.4634 17.4267 88.4634 16.92V8.94C88.4634 8.60667 88.4701 8.28667 88.4834 7.98C88.5101 7.67333 88.5301 7.43333 88.5434 7.26C88.3168 7.27333 88.0568 7.28667 87.7634 7.3C87.4701 7.3 87.2368 7.30667 87.0634 7.32V6H92.3834V7.1C92.0234 7.11333 91.7368 7.18 91.5234 7.3C91.3234 7.40667 91.1834 7.6 91.1034 7.88C91.0234 8.16 90.9834 8.56 90.9834 9.08V17.04C90.9834 17.4 90.9768 17.7333 90.9634 18.04C90.9501 18.3333 90.9301 18.5667 90.9034 18.74L93.9434 18.72C94.7434 18.7067 95.3634 18.4333 95.8034 17.9C96.2434 17.3667 96.4634 16.54 96.4634 15.42H97.5834L97.4634 20H87.0634ZM99.9363 25.42C99.4563 25.42 99.0496 25.2867 98.7163 25.02C98.3829 24.7533 98.2163 24.3867 98.2163 23.92C98.2163 23.6 98.3229 23.3133 98.5363 23.06C98.7496 22.82 99.0229 22.6933 99.3563 22.68C99.6496 22.6667 99.8829 22.76 100.056 22.96C100.243 23.1733 100.336 23.4267 100.336 23.72C100.336 23.76 100.336 23.8 100.336 23.84C100.336 23.8933 100.33 23.9467 100.316 24C100.343 24 100.39 24 100.456 24C100.59 23.9733 100.73 23.8733 100.876 23.7C101.036 23.54 101.183 23.32 101.316 23.04C101.476 22.7333 101.643 22.3533 101.816 21.9C101.99 21.46 102.156 20.9667 102.316 20.42L99.1763 13.96C98.8163 13.2133 98.5696 12.64 98.4363 12.24C98.3163 11.84 98.2296 11.5067 98.1763 11.24L97.2563 11.28V10H101.956V11.06H101.916C101.41 11.1 101.13 11.2933 101.076 11.64C101.023 11.9733 101.11 12.3867 101.336 12.88L103.436 17.54C103.623 17.02 103.83 16.38 104.056 15.62C104.296 14.86 104.563 14.06 104.856 13.22C104.923 13.0067 105.003 12.7733 105.096 12.52C105.203 12.2533 105.31 12 105.416 11.76C105.523 11.52 105.63 11.34 105.736 11.22L104.516 11.28V10H107.936V11.06C107.496 11.18 107.143 11.4533 106.876 11.88C106.623 12.2933 106.383 12.8133 106.156 13.44L103.656 20.52C103.27 21.6133 102.91 22.52 102.576 23.24C102.243 23.9733 101.87 24.52 101.456 24.88C101.056 25.24 100.55 25.42 99.9363 25.42Z" fill="#12070B"/>
</svg>
